Coordinates
version=1
nRows=20
nColumns=26
inDegrees=yes

Units are S.I. units (second, meters, Newtons, ...)
Angles are in degrees.

endheader
time	pelvis_tilt	pelvis_list	pelvis_rotation	pelvis_tx	pelvis_ty	pelvis_tz	hip_flexion_r	hip_adduction_r	hip_rotation_r	knee_angle_r	knee_angle_r_beta	ankle_angle_r	subtalar_angle_r	mtp_angle_r	hip_flexion_l	hip_adduction_l	hip_rotation_l	knee_angle_l	knee_angle_l_beta	ankle_angle_l	subtalar_angle_l	mtp_angle_l	lumbar_extension	lumbar_bending	lumbar_rotation
    231.72870750	    -17.81246628	     -3.29762447	     11.66317526	     -0.01006598	      0.92432878	      0.13252446	     40.84646215	     -2.32249522	     -8.07343899	      8.68381695	      8.68381695	      4.21455456	      5.40197928	      0.00000000	     -5.65240056	      0.30793918	     13.76922564	     43.29696859	     43.29696859	    -17.92947186	      0.21261589	      0.00000000	      5.83605047	      1.96269939	    -21.64132849
    231.73870750	    -17.04822630	     -3.37662123	     10.73211321	     -0.00889724	      0.92108975	      0.13289516	     39.48634193	     -1.42084705	     -8.86064920	      7.57442833	      7.57442833	      4.56072182	      6.85757824	      0.00000000	     -5.16625967	      0.66520708	     12.96577143	     49.54844061	     49.54844061	    -16.76653637	      0.07122026	      0.00000000	      4.98609508	      2.46589658	    -21.15107558
    231.74870750	    -16.26370137	     -3.15499373	      9.67670391	     -0.00791830	      0.91670869	      0.13399208	     38.38404827	     -0.69425260	     -9.17353906	      7.71383618	      7.71383618	      5.24801635	      7.40679547	      0.00000000	     -4.66377307	      1.25454030	     11.87307307	     55.72673350	     55.72673350	    -15.80708394	     -0.51445980	      0.00000000	      4.18954579	      2.74596696	    -19.02918193
    231.75870750	    -15.96152134	     -2.81862186	      8.67888130	     -0.00769361	      0.91064713	      0.13569682	     37.96699544	     -0.21881829	     -9.01323974	      8.72368954	      8.72368954	      5.82993142	      7.53419939	      0.00000000	     -3.38966238	      1.80133220	     10.52978203	     62.01677594	     62.01677594	    -15.02815523	     -0.90753310	      0.00000000	      3.99341828	      2.86169284	    -15.75926842
    231.76870750	    -15.55457987	     -2.74027748	      7.62994219	     -0.00773556	      0.90392713	      0.13714794	     37.33265521	      0.51503515	     -8.05763872	     10.03907042	     10.03907042	      5.97775839	      7.02470867	      0.00000000	     -2.09033052	      1.82136364	      8.73967526	     68.14356095	     68.14356095	    -14.58405836	     -2.17514260	      0.00000000	      3.57744611	      3.30779834	    -12.75970665
    231.77870750	    -15.42840316	     -2.85118430	      6.63380706	     -0.00813508	      0.89613458	      0.13822955	     36.90592781	      1.32590697	     -6.43881648	     11.61643119	     11.61643119	      5.85987763	      5.98560578	      0.00000000	     -0.37433934	      1.47528999	      6.85200562	     74.16254167	     74.16254167	    -14.14493817	     -3.86891467	      0.00000000	      3.35343916	      3.82006404	    -10.65705970
    231.78870750	    -14.97382780	     -3.10111444	      5.84516418	     -0.00840531	      0.88795960	      0.13919865	     36.23862793	      2.09333755	     -5.70792283	     13.86893764	     13.86893764	      5.12149029	      4.90331106	      0.00000000	      0.99475101	      0.73587282	      5.13224981	     79.95094150	     79.95094150	    -13.19948883	     -5.79615637	      0.00000000	      2.69022022	      4.43073793	     -9.01231271
    231.79870750	    -15.74732768	     -3.61592115	      4.89713048	     -0.00980077	      0.87768357	      0.14117939	     37.02137599	      3.29888336	     -4.19743667	     16.46314055	     16.46314055	      1.02878932	      0.32280332	      0.00000000	      4.09091396	     -0.51633394	      3.32831870	     86.02569306	     86.02569306	    -12.45567588	     -7.55446667	      0.00000000	      3.42744716	      5.11835488	     -7.17922046
    231.80870750	    -16.62350706	     -4.77899004	      3.93812638	     -0.01210784	      0.86707651	      0.14412348	     38.18962913	      5.53883092	     -2.55711056	     20.11047055	     20.11047055	      1.09005824	     -4.63343807	      0.00000000	      7.63023287	     -2.84731503	      1.82665029	     92.13881080	     92.13881080	    -11.49531101	     -9.04950237	      0.00000000	      4.16077078	      6.46930973	     -5.37001237
    231.81870750	    -18.04656115	     -5.66007025	      2.73945436	     -0.01657739	      0.85592865	      0.14738296	     41.55759344	      7.64835967	     -2.13942706	     27.35879273	     27.35879273	      5.41831620	     -8.29154572	      0.00000000	     12.21199810	     -4.91819765	      0.66075971	     98.33865596	     98.33865596	    -10.37520522	    -10.02799370	      0.00000000	      5.11652709	      7.53599231	     -3.15071432
    231.82870750	    -18.84934659	     -5.78129478	      1.86024418	     -0.02202251	      0.84596405	      0.14947949	     44.96374376	      8.58392763	     -2.29283303	     35.90273218	     35.90273218	      9.15726543	     -9.59158503	      0.00000000	     16.41483986	     -5.83327030	      0.16759594	    104.05359386	    104.05359386	     -9.35815689	    -11.08589835	      0.00000000	      5.02245358	      7.80711157	     -0.96450586
    231.83870750	    -18.18350247	     -6.28604171	      0.90108163	     -0.02621776	      0.83929431	      0.15164692	     45.10758325	     10.10365868	     -1.68759930	     41.50310359	     41.50310359	     12.30702573	    -10.08265964	      0.00000000	     18.99392128	     -7.15799447	      0.07016648	    108.79036316	    108.79036316	     -8.13616096	    -11.28013456	      0.00000000	      3.11708016	      8.57730277	      1.52260774
    231.84870750	    -17.51556098	     -6.17400259	      0.07635901	     -0.03032044	      0.83447233	      0.15318700	     43.85520795	     10.79350756	     -0.82256660	     44.97819260	     44.97819260	     15.96015853	     -9.25031036	      0.00000000	     21.85829904	     -7.50026663	      0.20497085	    112.72274011	    112.72274011	     -7.13540880	    -11.10862491	      0.00000000	      1.20856147	      8.51292625	      3.72956410
    231.85870750	    -17.35197076	     -6.13031140	     -0.86304058	     -0.03486821	      0.83101505	      0.15459896	     42.10800489	     11.50422930	      0.00806285	     46.50035302	     46.50035302	     18.98032890	     -8.45212294	      0.00000000	     25.65788475	     -7.92440322	      0.46291207	    115.99978395	    115.99978395	     -6.47941240	    -10.77349597	      0.00000000	     -0.04591602	      8.50693495	      5.80451544
    231.86870750	    -17.44039442	     -6.06806151	     -1.03017923	     -0.03857943	      0.82854647	      0.15478676	     40.15980718	     11.56683377	      0.09514728	     47.23979519	     47.23979519	     21.81477878	     -7.42397210	      0.00000000	     30.02100546	     -7.92970949	      1.47481656	    118.52708473	    118.52708473	     -5.35508134	     -9.84161666	      0.00000000	     -0.55613359	      8.44478438	      7.21812321
    231.87870750	    -17.48983815	     -6.09325300	     -0.82889834	     -0.04081896	      0.82761946	      0.15438089	     37.78668007	     11.47463547	     -0.00605514	     47.42750931	     47.42750931	     24.06008542	     -6.51245644	      0.00000000	     34.22094996	     -7.66762071	      2.73557012	    120.04011702	    120.04011702	     -4.18930802	     -9.33093189	      0.00000000	     -0.68731580	      8.46364405	      8.65854493
    231.88870750	    -17.73272180	     -5.97038607	     -0.56234697	     -0.04197601	      0.82831262	      0.15376952	     35.14918279	     11.17613825	      0.06297431	     46.85136605	     46.85136605	     25.71405815	     -5.41522777	      0.00000000	     38.36941028	     -7.09663817	      3.73966607	    120.49147177	    120.49147177	     -3.17725543	     -9.08208150	      0.00000000	     -0.33084187	      8.24396565	     10.29254603
    231.89870750	    -18.07235554	     -5.61494630	     -0.25577615	     -0.04222844	      0.83082806	      0.15318894	     32.06870385	     10.70914997	      0.55722426	     45.23074175	     45.23074175	     26.13674130	     -4.99133255	      0.00000000	     42.26990937	     -6.19145950	      4.34731297	    119.85197511	    119.85197511	     -2.49615259	     -9.25412549	      0.00000000	      0.30460398	      7.62890088	     11.98604312
    231.90870750	    -18.67125237	     -5.19141525	      0.04942783	     -0.04183560	      0.83438738	      0.15290145	     28.88071057	     10.14460726	      0.98964615	     42.79336460	     42.79336460	     26.02926748	     -4.30518232	      0.00000000	     46.13738202	     -5.25593541	      4.67957938	    118.39614246	    118.39614246	     -1.76774114	     -9.36603910	      0.00000000	      1.38284808	      6.77574836	     13.79868365
    231.91870750	    -18.65729509	     -4.61576430	     -0.17516998	     -0.04009722	      0.84021597	      0.15347306	     24.61501491	      9.84403000	      2.36714990	     39.53006043	     39.53006043	     24.88586209	     -4.08504239	      0.00000000	     48.57063358	     -4.61867521	      4.33028770	    115.84390539	    115.84390539	     -0.94214594	     -9.75761248	      0.00000000	      1.81017964	      5.71274874	     16.31884403
